<?xml version="1.0" encoding="UTF-8" standalone="no"?>
<!-- Generator: Adobe Illustrator 21.1.0, SVG Export Plug-In . SVG Version: 6.00 Build 0)  -->

<svg
   xmlns:dc="http://purl.org/dc/elements/1.1/"
   xmlns:cc="http://creativecommons.org/ns#"
   xmlns:rdf="http://www.w3.org/1999/02/22-rdf-syntax-ns#"
   xmlns:svg="http://www.w3.org/2000/svg"
   xmlns="http://www.w3.org/2000/svg"
   xmlns:sodipodi="http://sodipodi.sourceforge.net/DTD/sodipodi-0.dtd"
   xmlns:inkscape="http://www.inkscape.org/namespaces/inkscape"
   version="1.1"
   id="Lager_1"
   x="0px"
   y="0px"
   viewBox="0 0 1783.4326 880.49998"
   xml:space="preserve"
   inkscape:version="0.91 r13725"
   sodipodi:docname="Logga_IinPI_neg_no_BG-cropped.svg"
   width="1783.4326"
   height="880.5"><metadata
     id="metadata45"><rdf:RDF><cc:Work
         rdf:about=""><dc:format>image/svg+xml</dc:format><dc:type
           rdf:resource="http://purl.org/dc/dcmitype/StillImage" /><dc:title></dc:title></cc:Work></rdf:RDF></metadata><defs
     id="defs43" /><sodipodi:namedview
     pagecolor="#ffffff"
     bordercolor="#666666"
     borderopacity="1"
     objecttolerance="10"
     gridtolerance="10"
     guidetolerance="10"
     inkscape:pageopacity="0"
     inkscape:pageshadow="2"
     inkscape:window-width="1280"
     inkscape:window-height="751"
     id="namedview41"
     showgrid="false"
     inkscape:zoom="0.15446709"
     inkscape:cx="897.48267"
     inkscape:cy="444.39999"
     inkscape:window-x="0"
     inkscape:window-y="0"
     inkscape:window-maximized="1"
     inkscape:current-layer="Lager_1"
     fit-margin-top="0"
     fit-margin-left="0"
     fit-margin-right="0"
     fit-margin-bottom="0" /><style
     type="text/css"
     id="style3">
	.st0{fill:#FFFFFF;}
	.st1{fill:none;}
</style><path
     class="st0"
     d="m 2.7326531,516.29999 c -5,-38.2 -1.90000004,-69.5 -0.2,-112.1 15.9999999,-1.1 27.6999999,-4.7 34.5999999,-10.4 1.4,-1.2 2.7,-2.6 3.8,-4.1 4.5,-6.2 7,-15.3 7.3,-27.4 1.6,-68.9 1.3,-110.5 -0.7,-181.5 -0.3,-12.7 -2.8,-22.1 -7.4,-28 -1.1,-1.5 -2.4,-2.8 -3.8,-3.9 -7.1,-5.6 -18.6,-8.1 -34.8999999,-7.4 -1.80000004,-43.299996 -3,-89.699996 3.4,-134.1999961 12.8999999,-0.1 25.7999999,-0.2 38.5999999,-0.2 17,-0.1 33.8,-0.1 50.8,-0.2 37.499997,-0.1 80.799997,-0.3 118.299997,-0.4 15,-0.1 29.9,-0.1 44.9,-0.2 -5.3,38.1000001 -6.1,82.1000001 -6.1,124.7999961 -16,0.9 -27.5,4.2 -34.3,10.3 -6.7,5.8 -9.9,16.5 -9.8,32.3 1,80.7 1.1,100.4 0.6,175 -0.1,13.9 3.2,22.6 9.9,26.5 6.9,3.7 18.3,4.4 34.4,2 0.1,35.3 -0.4,40.5 2.1,62.9 -14.8,0.2 -101.4,24.5 -124,31.5 -46.399997,10.8 -114.199997,41.2 -127.4999969,44.7"
     id="path5"
     inkscape:connector-curvature="0"
     style="fill:#ffffff" /><rect
     x="0.23265001"
     y="0"
     class="st1"
     width="1783.2"
     height="880.5"
     id="rect7"
     style="fill:none" /><path
     class="st0"
     d="m 391.33265,63.799994 c 0.5,-18.4 7.3,-33.5 20.2,-45.5 13,-12.0000001 30.8,-17.4000001 52.9,-17.4000001 22.5,0 39.6,5.4 51.4,16.7000001 12,11.4 18.2,25.6 18.1,43.4 -0.1,18.2 -6.4,34.3 -19.2,47.999996 -12.5,13.5 -30.4,20.8 -53.5,21.6 -22.8,0.8 -40.2,-5.3 -52.4,-18.3 -12.2,-13.199996 -18.1,-29.599996 -17.5,-48.499996 l 0,0 z m 160.5,76.299996 c 0.3,63 0.9,146.1 2.6,192.9 0.4,11.3 4,17.8 10.5,20.5 6.5,2.6 14.8,3.5 24.7,3 2.6,-0.1 5.3,-0.3 7.9,-0.4 1.7,26.8 2.2,41.2 6.2,47.7 -80.3,1.6 -167.6,4.2 -246.2,18 0,0 0.3,-0.1 0,0 0,0 0,0 0,0 -2.1,-15 -2.6,-13.7 -3.6,-43.6 l 0.5,-0.1 c 1.1,-0.2 2.2,-0.4 3.3,-0.6 l 0.1,0 0.1,0 c 3.2,-0.4 6.4,-0.7 9.6,-1.1 9.9,-1.1 17.2,-4.5 21.7,-10.4 4.7,-6.2 7,-12.6 6.9,-19.6 -0.2,-12.5 -0.3,-26.3 -0.4,-40.3 -0.1,-11.7 -3.6,-20.3 -10.5,-25.6 -6.7,-5.4 -14.5,-7.9 -23.4,-7.3 -1.6,0.1 -1.6,0.1 -3.2,0.2 l -1.7,0.1 -4,1 c -1.1,0.2 -0.2,-126.5 0,-126.5 1.1,-0.2 2.2,-0.4 3.3,-0.5 l 0.2,0 0,0 c 63.2,-2.8 130.1,-5.6 195.4,-7.4"
     id="path9"
     inkscape:connector-curvature="0"
     style="fill:#ffffff" /><path
     class="st0"
     d="m 870.03265,297.19999 c -0.3,-7.8 -1.4,-14.3 -3.4,-19.1 -1.8,-5.1 -4.1,-9 -7,-11.7 -2.7,-2.9 -5.7,-4.9 -9,-5.9 -3.4,-1 -6.6,-1.7 -9.8,-1.8 -12.1,-0.7 -20.9,2.8 -26.7,10.3 -2.5,3.2 -4.4,7.1 -5.7,11.5 -1.8,5.8 -2.5,12.6 -2.3,20.2 0.5,13.9 1.1,26.8 1.7,39.1 0.3,6.8 1.6,12 3.7,15.9 0.7,1.2 1.5,2.3 2.3,3.3 3.7,3.8 10.5,6.2 20.4,7.3 5,0.5 10.1,1.1 15.1,1.7 1.6,28.7 3.3,40.5 2.3,52 -64.9,-13.3 -174.6,-17.9 -203.9,-17.1 -11.2,0.3 -25.6,-0.5 -36.8,0.2 -3.9,-5.9 -4.2,-19 -5.9,-45.4 5.8,-0.3 11.5,-0.5 17.3,-0.8 7.2,-0.3 12.8,-2 16.7,-5.2 0.4,-0.4 0.8,-0.7 1.2,-1.1 4.1,-4.1 6,-9 5.7,-15 -0.7,-15.4 -1.3,-32.4 -1.8,-50.8 -0.2,-8.8 -2.9,-15 -8.1,-18.2 -0.2,-0.1 -0.3,-0.2 -0.5,-0.3 -5.4,-3.3 -11.4,-4.9 -18.2,-4.7 -5.2,0.1 -10.3,0.3 -15.4,0.5 -0.6,-37.2 -0.9,-79.9 -1.3,-120.2 11.3,-0.2 22.6,-0.4 33.9,-0.6 29.6,-0.3 59.4,-0.2 89.5,0.5 17,0.4 33.9,1 50.5,1.6 -1.2,26.6 -3.3,64.1 -4.6,89.7 1.7,0.1 3.3,0.1 5,0.2 3.3,-29.2 13.9,-52.9 31.2,-70 1.9,-2 4,-3.9 6.2,-5.8 20.5,-17.5 48.5,-25.7 84.4,-24.2 16.4,0.7 30.9,3.1 43.5,7.3 6.9,2.3 13.2,5.2 18.9,8.6 16.3,9.6 29.1,21.6 38.3,35.8 2,3 3.90005,6.1 5.70005,9.3 6.3,11.4 11.2,23.4 14.1,36.1 3.8,16 6,30.7 6.3,44.2 0.9,32.6 2,59.3 3.5,88.7 0.4,7.7 -0.1,10.2 4.1,18.6 4.2,8.4 16.9,16.8 26.5,20.8 9.6,4 15.3,4.1 19.5,5.2 0.5,36 0.9,65.6 -9,89.4 -8.3,-5.5 -40,-26.8 -52.4,-31.9 -13.1,-6.3 -27.80005,-13.1 -60.10005,-22.2 -24.9,-6.4 -54.7,-12.7 -79.6,-18.6 1.1,-16.1 -4,-70.6 -6,-127.4"
     id="path11"
     inkscape:connector-curvature="0"
     style="fill:#ffffff" /><path
     class="st0"
     d="m 1541.2327,546.09999 c 0,0 -5.2,-74.4 -8,-114.5 17,1.7 28.5,0.3 35.3,-4.6 6.7,-5.1 9.4,-15.7 8.4,-31.6 -4.3,-68.9 -4.9,-116.4 -4.1,-183.9 0.2,-15.9 -3.2,-26.7 -10.3,-32.6 -7.1,-6.1 -19,-9.6 -36.1,-10.4 0,-43.7 -0.4,-89.999996 -5.1,-134.099996 28.8,0.6 57.6,1.3 85.7,2 56.2,1.3 113.3,2.7 168.4,3.5 5.5,48.6 2,93.499996 -1,133.699996 -15.2,0.7 -26.2,3.7 -33.1,9.4 -6.7,5.4 -10.6,15.7 -11.3,31 -3.3,65.9 -2.4,111.6 2.9,188.9 1.2,17.8 5.3,30.6 12,37.5 6.9,6.6 18,10.1 32.9,9.3 3.6,54.6 6.1,81.8 2.8,148.8 -20.4,-46 -57.7,-93.8 -70.8,-101.9 -33.5,24.8 -73.2,39.5 -84.3,42.6 -11,3.2 -56.8,12.7 -84.3,6.9"
     id="path13"
     inkscape:connector-curvature="0"
     style="fill:#ffffff" /><rect
     x="0.23265001"
     y="0"
     class="st1"
     width="1783.2"
     height="880.5"
     id="rect15"
     style="fill:none" /><path
     class="st0"
     d="m 778.23265,568.49999 c -4.9,-0.1 -8.2,2.3 -10.2,7.1 -1.9,4.6 -2.8,12.4 -2.9,22.9 -0.2,42.1 -0.3,88.7 -0.3,125.6 0,6.4 0.2,12.5 0.7,18.4 0.5,5.9 1.4,11.1 2.6,15.8 1.3,4.5 2.9,8.1 4.9,10.9 2.1,2.6 4.7,3.9 7.9,4 6.1,0.1 10.5,-4.2 13.3,-12.8 2.8,-8.8 4.2,-20.5 4.2,-35.3 0.1,-36.3 0.2,-83.3 0.4,-124.6 0.1,-12 -1.1,-20.4 -3.4,-24.7 -2.3,-4.5 -5.5,-6.9 -9.7,-7 0.3,-37.4 0.7,-60 1.5,-106.6 21.2,1.3 42.2,5.1 63.6,9.3 -1.2,45.1 -1.8,63.2 -2.2,99.9 -4.3,-0.2 -7.6,1.6 -9.9,5.5 -2.3,3.7 -3.6,11.7 -3.6,23.7 -0.3,41.9 -0.4,91.6 -0.5,128.5 0,15.8 -0.8,32.2 -2.3,49.5 -1.5,17.1 -4.4,33.1 -8.7,48 -4.3,14.7 -10.4,27.4 -18.4,37.7 -8,10.2 -18.7,15.5 -32,15.5 -9.7,0 -18,-2.7 -25,-8.1 -6.8,-5.1 -12.6,-11.7 -17.3,-19.9 -0.1,-0.2 -0.2,-0.4 -0.3,-0.6 -4.8,-8.4 -8.7,-17.8 -11.5,-28.1 -2.9,-10.5 -5.1,-21 -6.7,-31.7 -1.5,-10.9 -2.5,-21.3 -3,-31.3 -0.5,-10.2 -0.7,-19.5 -0.7,-27.9 0,-39.2 0.1,-85.6 0.2,-130.2 0,-12.9 -1.1,-21.9 -3.6,-26.6 -2.4,-4.9 -6.4,-7.3 -12,-7.3 0.1,-38 0.3,-65.5 0.5,-113.1 12.8,-0.1 70,5.3 85.8,6.2 -0.1,-0.3 -1.2,69.8 -1.4,107.3"
     id="path17"
     inkscape:connector-curvature="0"
     style="fill:#ffffff" /><path
     class="st0"
     d="m 997.53265,513.19999 c -3,55 -2.2,72.6 -2.7,118.6 -11.1,-1.1 -22.1,-2 -33.2,-3 0.1,-12 -0.3,-22.3 -1.3,-30.7 -0.9,-8.4 -2.2,-15.5 -3.9,-21 -1.6,-5.5 -3.6,-9.6 -5.9,-12.2 -2.3,-2.6 -4.8,-4.1 -7.6,-4.4 -3.8,-0.4 -7,1.5 -9.7,5.7 -2.7,4 -5,10.8 -6.9,20.2 -1.8,9.4 -3.2,21.8 -4.2,37 -0.9,15.2 -1.5,33.2 -1.6,53.9 -0.1,21 0.3,38.3 1.1,52.3 0.9,13.8 2.3,25 4.1,33.8 1.9,8.6 4.3,14.9 7.2,18.9 2.9,3.8 6.4,5.8 10.5,6 2.7,0.1 5.4,-1.2 7.9,-3.8 2.5,-2.8 4.7,-7 6.6,-12.7 2,-5.7 3.5,-12.8 4.6,-21.3 1.2,-8.5 1.8,-18.9 1.8,-31 11,0.6 22,1.2 33,1.8 -0.1,21.3 -1.4,41.1 -3.9,60 -2.5,18.8 -6.4,35.5 -11.6,50.1 -5.2,14.5 -11.9,26.4 -20,35.4 -8.2,8.9 -17.9,13.6 -29.4,13.6 -10.3,0 -20.2,-4.1 -29.5,-12.3 -9.3,-8.2 -17.4,-20.9 -24.3,-37.9 -6.9,-16.9 -12.3,-38.1 -16.3,-63.4 -3.9,-25.5 -5.8,-55.7 -5.7,-92 0.1,-36.4 2.3,-69.6 6.7,-98.5 4.4,-29.2 10.1,-54.7 17.3,-74.8 8.8,-20.8 1.8,-5.2 9.9,-21.1 33,5.9 94.3,25.7 107,32.8"
     id="path19"
     inkscape:connector-curvature="0"
     style="fill:#ffffff" /><path
     class="st0"
     d="m 1162.0327,660.99999 c -10.7,-0.9 -21.4,-2.1 -32.1,-3.4 0.1,-10.6 0.1,-19.8 -0.1,-27.5 -0.1,-7.9 -0.5,-14.2 -1.1,-19 -0.7,-5 -1.8,-8.7 -3.4,-11.2 -1.5,-2.6 -3.6,-4.2 -6.2,-4.8 -0.3,-0.1 -0.6,-0.1 -0.9,-0.2 -1.7,-0.3 -3.3,-0.7 -5,-1 -1.1,41.4 -1.4,117.1 -1.5,159 0,10.5 1.2,17.7 3.6,21.8 0.4,0.7 0.9,1.3 1.4,1.9 2.5,2.7 6.1,4.2 10.8,4.5 0,29.1 0.3,60.1 1.5,89.1 -3.6,0 -7.1,-0.1 -10.6,-0.1 -25.6,-0.3 -51.2,-0.5 -76.8,-0.8 -0.9,-31.2 -1.1,-63.5 -1.1,-93.5 5.6,0.3 9.5,-1.4 11.8,-5 2.4,-3.8 3.6,-11.1 3.6,-21.7 0.1,-43.5 0.4,-119.1 1.5,-165.6 -1.9,-0.3 -3.9,-0.7 -5.8,-1 -2.6,-0.4 -4.7,0.5 -6.3,2.9 -1.6,2.2 -2.8,6 -3.8,11.3 -0.9,5.1 -1.4,12 -1.7,20.7 -0.3,8.5 -0.5,18.3 -0.6,29.7 -10.4,-1.1 -20.9,-2.1 -31.3,-3.1 0.4,-48.3 0,-65 2.6,-123.3 38.5,21.7 49.7,38.5 85.8,54.1 16.3,9.1 52.7,22.2 67.5,25 -0.1,-0.1 -1.4,17.3 -1.8,61.2"
     id="path21"
     inkscape:connector-curvature="0"
     style="fill:#ffffff" /><path
     class="st0"
     d="m 1168.1327,870.59999 c -0.8,-27.9 -0.9,-58.5 -0.9,-87.2 5.7,0.3 9.8,-1.4 12.3,-4.9 2.5,-3.7 3.7,-10.7 3.7,-21 0.1,-34.7 0.3,-85.3 0.8,-118 0.1,-9.9 -1,-16.6 -3.4,-20.2 -2.4,-3.8 -6.5,-6 -12.1,-6.7 0.2,-10 0.3,-7.4 0.3,-11.7 37.1,11.8 62.6,5.7 89.4,3.8 l -0.6,14.1 c -3.4,-0.1 -6.3,0.4 -8.6,1.6 -1.5,0.8 -2.7,1.8 -3.7,3.1 -2.5,3.2 -3.8,9.5 -3.9,19.1 -0.5,34.5 -0.7,79.2 -0.8,116.6 0,10.2 1.1,17.2 3.5,21 1,1.4 2.2,2.6 3.6,3.5 2.3,1.3 5.1,2 8.5,2.1 -0.1,26.7 -0.2,60.3 -0.2,85.3 -2.8,0 -5.6,0 -8.4,0 -26.6,-0.1 -53,-0.3 -79.5,-0.5"
     id="path23"
     inkscape:connector-curvature="0"
     style="fill:#ffffff" /><path
     class="st0"
     d="m 1611.3327,599.09999 c -0.2,11.1 -0.3,-0.9 -0.8,21.7 -5.5,-0.2 -9.2,1.4 -11,5 -1.8,3.7 -2.7,9.1 -2.8,16.7 -0.3,29.9 -1.3,196.7 -0.2,228.9 -17.8,-0.1 -35.5,-0.1 -53.3,-0.2 l -3.8,0 c -10.2,-35.6 -39.2,-153.4 -48.9,-191.2 -0.2,25.6 -0.3,54.7 -0.4,81.6 0,10.4 1.1,16.9 3.5,19.8 2.4,2.7 6.3,4 11.9,4 -0.1,19.2 -0.2,68.8 -0.2,85.7 -17.4,0 -34.4,0 -51.8,0 -4.6,0 -9.1,0 -13.7,0 0.4,-27.3 0.5,-56 0.6,-85.4 5.6,-0.1 9.6,-1.9 12,-5.6 0.7,-1.1 1.2,-2.3 1.7,-3.9 1.3,-4.1 1.9,-9.9 2,-17.3 0.1,-39.7 0.2,-80.8 0.9,-116.7 0.1,-6.9 -0.4,-12 -1.6,-15.5 -0.4,-1.3 -1,-2.4 -1.6,-3.3 -2.3,-3.3 -6.3,-4.8 -11.9,-4.7 0.7,-25.3 -0.7,-13.2 1,-32.3 16,-1 67.4,3.2 89.9,10.6 6,21.4 3,10.6 11.2,41.7 6,22.7 11.9,45.4 18.2,70.5 0.1,-22.5 0.2,-47.2 0.5,-67.3 0.1,-9.3 -0.6,-15.2 -2.3,-18.4 -1.6,-3.2 -5.2,-4.9 -10.7,-5.1 0.7,-24.4 0,0 0.6,-17.6 26.1,4.9 41.3,2.3 61,-1.7"
     id="path25"
     inkscape:connector-curvature="0"
     style="fill:#ffffff" /><path
     class="st0"
     d="m 1746.1327,651.49999 c -9,0.6 -18.1,0.9 -27,1.1 -0.6,-6.3 -5.7,-12.2 -9.2,-17.8 0,0 -7.5,-10.9 -14.7,-16.5 -2.5,-2.9 -13.3,-5.4 -18.9,0.4 -1.2,1.1 -5.7,15.4 -0.3,22.2 2.2,3 5.2,5.7 8.8,8 3.6,2.2 7.8,4.3 12.5,6.3 4.7,2 9.5,4.5 14.3,7.6 4.9,3.1 9.8,7 14.5,11.7 4.8,4.7 9,11.1 12.7,19.5 3.7,8.3 6.6,18.9 8.7,32.3 2.1,13.4 2.8,29.7 2.3,49.1 -0.5,20.3 -2.6,37.3 -5.9,50.4 -3.3,13.2 -7.5,23.3 -12.6,30.8 -5.1,7.5 -11,12.7 -17.9,15.9 -6.8,3.2 -14.1,4.8 -21.7,4.8 -7.4,0 -14.7,-1.8 -21.8,-5.5 -7,-3.7 -14.2,-9.8 -21.4,-18.7 0.2,6.4 0.4,12.6 0.8,18.6 -3.3,0 -6.6,0 -9.9,-0.1 -7.2,0 -14.3,-0.1 -21.5,-0.1 -1.5,-34.4 -0.8,-85.5 -0.5,-125.3 7.1,0 14.3,0 21.4,0 3.3,0 6.6,0 9.9,-0.1 1.7,18.8 5.1,33.7 10.5,44.6 5.4,10.7 11.5,16.1 18.4,16.2 4.6,0 8.1,-2.1 10.4,-6.4 2.3,-4.5 3.6,-9.6 3.6,-15.2 0.1,-9 -1.6,-15.9 -5.4,-20.8 -3.7,-4.9 -8.3,-9.1 -13.9,-12.8 -5.6,-3.9 -11.6,-8 -18.3,-12.6 -5.4,-3.9 -10.5,-9.2 -15.2,-15.7 -1,-1.4 -2,-2.8 -2.9,-4.3 -5.5,-8.7 -10.2,-20.1 -13.9,-33.7 -3.7,-13.5 -5.6,-31 -5.3,-49.9 0.2,-14 2.4,-24.9 5.3,-33.2 2.5,-9 17.7,-8.7 35.5,-15.8 17.8,-7.1 39.3,-20.2 39.3,-20.2 0,0 19.6,9.8 30.9,27.4 16,19.6 20.4,47.7 18.4,57.8"
     id="path27"
     inkscape:connector-curvature="0"
     style="fill:#ffffff" /><path
     class="st0"
     d="m 438.03265,731.99999 c -0.5,13.6 -1.5,24.6 -3,33.1 -1.4,8.4 -3.3,14.6 -5.8,18.5 -2.5,3.8 -5.5,5.7 -9.2,5.8 -3.8,0.1 -6.9,-1.7 -9.3,-5.3 -2.4,-3.8 -4.4,-9.8 -5.8,-18.1 -1.4,-8.4 -2.4,-19.3 -3,-32.7 -0.6,-13.6 -0.9,-30.4 -1,-50.9 -0.1,-20.2 0.2,-37.8 0.7,-52.6 0.5,-14.8 1.4,-27.1 2.8,-36.6 1.4,-9.5 3.3,-16.5 5.7,-21 2.4,-4.7 5.5,-7.2 9.3,-7.6 3.6,-0.4 6.7,1.6 9.2,5.8 2.5,4.1 4.5,10.9 6,20.2 1.5,9.4 2.6,21.7 3.2,36.7 0.6,15 0.9,32.8 1,53.1 0.1,20.8 -0.2,37.9 -0.8,51.6 l 0,0 z m 58.6,-146.9 c -4.1,-28.2 -10,-53.4 -17.7,-74 -7.6,-20.7 -14,-40.6 -27.2,-46.3 -6.7,-3.3 -24.2,-0.4 -34.1,1.2 -10,1.6 -25.4,2.9 -33.6,10.4 -11.7,10.8 -18.2,29.7 -25.2,50.2 -7,20.5 -12.4,44.5 -16.3,71.1 -3.8,26.4 -5.7,55.7 -5.6,87.9 0.1,32 2.1,59.4 6.2,83.3 4.1,23.6 9.8,43.8 17.1,60.4 7.3,16.5 15.9,29.2 25.9,37.8 10.1,8.6 21.2,13.1 33.5,13.1 12.3,0 23.5,-4.5 33.8,-13.5 10.3,-9 19.1,-22.3 26.5,-39.7 7.4,-17.5 13.2,-38.6 17.2,-63.1 4.1,-24.7 6.1,-53.1 6,-86.4 -0.2,-33.3 -2.3,-64.4 -6.5,-92.4"
     id="path29"
     inkscape:connector-curvature="0"
     style="fill:#ffffff" /><path
     class="st0"
     d="m 99.232653,671.79999 c -2,7 -5.7,10.5 -11.1,10.5 -3.4,0 -6.9,0 -10.3,0 0,-24.3 0,-52.3 -0.2,-75.1 3.4,-0.1 6.9,-0.1 10.3,-0.2 5.4,-0.1 9.1,3.3 11.2,10.5 2.099997,7.2 3.099997,16.1 3.199997,26.8 -0.1,11.2 -1.1,20.5 -3.099997,27.5 l 0,0 z m 56.299997,-88 c -1.8,-13.9 -4.8,-25.5 -9,-34.6 -4.1,-9.3 -8.8,-17.5 -16.2,-20.4 -3.9,-1.5 -15.9,1.7 -20,3.1 -4.1,1.4 -69.599997,24.4 -105.2999969,38.1 1.6,19.9 0.4,11.2 0.5,37.5 5.5999999,0.1 9.5999999,1.8 12.0999999,5.4 2.4,3.4 3.7,9.9 3.7,19.9 0.1,63.7 -0.1,54.4 0.1,121.4 0,10.7 -1.1,18 -3.5,21.9 -2.4,3.8 -6.4,5.7 -11.9999999,5.6 0.1,29.4 0.3,61.8 -0.1,89.1 30.9999999,-0.1 62.4999999,-0.2 93.4999999,-0.3 0.4,-28.1 0.3,-60 0.2,-89 -3.3,0 -6.5,0.1 -9.8,0.1 -4.5,0 -7.6,-2.3 -9.3,-7 -1.7,-4.9 -2.6,-11.6 -2.6,-20.2 0,-4.9 0,-9.7 -0.1,-14.6 10.4,0 20.7,-0.1 31.099997,-0.1 9.4,-0.1 17.3,-2.5 23.7,-7.3 6.4,-4.9 11.4,-12.1 15.2,-21.5 3.9,-9.6 6.6,-21 8.2,-34.4 1.6,-13.3 2.4,-28.7 2.4,-46 0,-17.3 -0.9,-32.8 -2.8,-46.7"
     id="path31"
     inkscape:connector-curvature="0"
     style="fill:#ffffff" /><path
     class="st0"
     d="m 256.63265,669.09999 c -4.3,5.8 -6.3,4.7 -11.7,4.9 -2.8,0.1 -5.6,0.2 -8.4,0.3 -0.1,-24.3 -0.1,-61.4 -0.4,-86.4 2.8,-0.2 12.2,-3.3 15.2,-2 6.3,1.7 6.3,12.2 7.1,16.2 1.1,6.6 1.4,21.6 1.5,35.6 0,12 0.1,21.1 -2,28 l -1.3,3.4 z m 60.4,133.8 c -1.2,6.6 -0.8,8.4 -2.6,8.5 -1.7,0 -1.3,-1.5 -2.1,-4.4 -0.8,-3.1 -1.2,-6.7 -1.2,-10.8 0,-4.4 0,-8.7 0,-13.1 0,-12.1 -0.5,-22.9 -1.4,-32.3 -0.9,-9.6 -2.3,-17.7 -4.5,-24.3 -2.1,-6.8 -4.9,-12.2 -8.6,-16.3 -3.2,-3.7 -7.2,-6 -11.9,-7 -0.5,-0.1 -1.1,-0.2 -1.7,-0.3 0,-1 0,-1.9 0,-2.9 0.6,-0.1 1.1,-0.2 1.7,-0.3 10.5,-2.4 18.1,-11.6 23,-27.6 5.1,-17.1 7.7,-40.1 7.4,-69.6 -0.1,-16.2 -1.1,-31.3 -3,-44.9 -1.8,-13.7 -3.3,-24.9 -6.9,-34.8 -4.1,-11.4 -4.1,-12.8 -11,-22.9 -3.6,-6 -11.5,-9.3 -13.3,-9.8 -10,-2.4 -21.5,-1.4 -28.7,0 -33.6,6.7 -90.7,31.9 -90.7,31.9 0,0 2.1,52.9 2.4,82.1 5.6,-0.3 9.7,1.4 12.1,5.1 2.5,3.6 3.7,10.7 3.8,21.3 0,9.9 0.3,112.6 0.3,122.5 0,10.5 -1.2,17.7 -3.6,21.6 -2.4,3.7 -6.4,5.7 -12,5.8 0.1,29 0.1,60.8 -0.3,89.7 28.2,-0.1 56.7,-0.3 84.9,-0.5 0.5,-30.1 0.5,-62 0.4,-91.3 -4.9,0.2 -8.2,-1.6 -10.1,-5.3 -1.9,-3.8 -2.8,-10 -2.8,-18.6 0,-14.5 -0.1,-20.2 -0.1,-34.7 0.8,0 1.5,-0.1 2.3,-0.1 3,-0.1 5.6,0.5 7.7,1.9 2.1,1.4 3.8,4.3 5.1,8.8 1.4,4.3 2.3,10.5 2.9,18.6 0.6,7.9 0.9,18.4 0.9,31.3 0,6.2 0,12.5 0,18.8 0,10.7 0.5,21 1.5,30.9 1,9.7 2.8,18.3 5.4,25.7 2.6,7.5 6.2,13.3 10.8,17.5 3,2.8 6.7,4.8 10.9,5.8 2.2,0.5 4.7,0.8 7.3,0.8 7.5,0 13.8,-2.2 18.9,-6.5 5.2,-4.2 9.4,-10.1 12.6,-17.9 3.2,-7.7 5.5,-16.7 6.9,-26.8 1.5,-10.3 2.2,-12.4 2.2,-24.3 0.2,-19.7 -12.3,-19.3 -14.9,-1.3"
     id="path33"
     inkscape:connector-curvature="0"
     style="fill:#ffffff" /><path
     class="st0"
     d="m 617.83265,724.09999 c -1.6,12.2 -3.6,21.6 -6.2,28.1 -2.5,6.5 -5.4,10.9 -8.8,13 -3.3,2.1 -6.7,3.2 -10.2,3.3 -3,0.1 -6,0.1 -9,0.2 0,-33.5 0,-152.4 -0.1,-197.5 3,-0.1 6,-0.3 9,-0.4 3.6,-0.2 7.1,1 10.5,3.5 3.5,2.3 6.4,7.3 8.8,15 2.5,7.6 4.5,18.5 6,32.3 1.5,13.5 2.3,31.1 2.3,52.2 0.1,21.3 -0.6,37.9 -2.3,50.3 l 0,0 z m 60.5,-150.2 c -4,-28.9 -9.3,-54.3 -15.9,-74.1 -6.6,-19.9 -13.8,-35.4 -22.8,-44.1 -1.7,-2.8 -26.5,-2 -26.5,-2 l -102.5,3.1 c 0,0 1,82.4 1.2,118.7 5.6,-0.4 9.6,1.7 12.1,6.3 2.4,4.4 3.7,13.1 3.7,25.6 0.1,35.5 0.1,103.6 0.2,133.9 0,11 -1.2,18.6 -3.6,22.7 -2.4,4 -6.4,6 -12,6.2 0,30.7 -0.1,64.3 -0.4,98 32.5,0.1 64.7,0.2 97.2,0.3 10.3,0 20,-3.7 29.2,-10.8 9.2,-7.2 17.2,-18.7 24,-34.3 6.9,-15.5 12.3,-35.6 16.2,-59.9 4,-24.4 6,-54 6.1,-90.7 -0.3,-36.8 -2.2,-70.2 -6.2,-98.9"
     id="path35"
     inkscape:connector-curvature="0"
     style="fill:#ffffff" /><path
     class="st0"
     d="m 1367.3327,700.39999 c -0.1,18.8 -0.5,34.6 -1.1,47.6 -0.6,12.8 -1.7,23.2 -3.1,31.2 -1.4,7.9 -3.4,13.6 -5.9,17.2 -2.5,3.4 -5.5,5.2 -9.1,5.2 -3.8,0 -6.9,-1.7 -9.3,-5.2 -2.4,-3.6 -4.3,-9.3 -5.7,-17.2 -1.4,-8 -2.3,-18.4 -2.8,-31.2 -0.5,-12.8 -0.7,-28.9 -0.6,-47.5 0.1,-18.4 0.6,-33.5 1.3,-45.7 0.7,-12.2 1.9,-21.7 3.5,-28.7 1.6,-7 3.7,-11.9 6.2,-14.9 2.5,-3.1 5.7,-4.6 9.5,-4.6 3.6,0 6.6,1.6 9,4.7 2.4,3 4.2,7.9 5.4,14.9 1.3,7 2.1,16.4 2.5,28.6 0.2,12.1 0.3,27.3 0.2,45.6 l 0,0 z m 59.5,-75.3 c -3.5,-20.2 -4.3,-27.1 -11.1,-38.7 l -137.3,16.1 c -4.8,14.2 -1.8,2 -6.3,22.6 -4.5,20.5 -6.8,45.4 -7,75.3 -0.2,29.6 1.8,56.4 5.7,79.3 4,22.8 9.7,41.8 17.1,56.9 7.3,15 16,25.9 26.1,33.1 10.1,7.2 21.4,10.7 33.6,10.7 6.7,0 13.1,-1 19.1,-3.2 5.1,-1.7 9.9,-4.2 14.6,-7.5 10.3,-7.2 19.2,-18 26.6,-33 7.6,-15.2 13.3,-34.1 17.4,-57.1 4.2,-23.2 6.2,-50.1 6.4,-79.9 0.3,-29.7 -1.3,-54.7 -4.9,-74.6"
     id="path37"
     inkscape:connector-curvature="0"
     style="fill:#ffffff" /><path
     class="st0"
     d="m 1332.2327,268.19999 c -5.5,10.6 -15.7,16 -30.4,16.1 -9.5,0 -18.9,0.1 -28.2,0 -0.7,-39.7 -1,-76.5 -1.5,-116.2 9.4,0 18.8,0 28.2,0 14.7,-0.1 25,5.5 30.8,16.8 5.8,11.3 8.8,25.1 9,41.4 0.2,17.3 -2.4,31.3 -7.9,41.9 l 0,0 z m 168.4,-132.1 c -5.2,-21.6 -14.3,-39.799996 -27.1,-54.799996 -11.6,-14 -26.5,-24.9 -44.5,-32.8 -1.4,-0.7 -2.9,-1.4 -4.4,-2.1 -18.2,-8.3 -40.8,-12.4 -67.6,-12.3 -50.5,0.2 -101,0.2 -150.4,0 -46.3,-0.2 -91.1,-0.2 -136.7,-0.2 11,43.2 14.1,88.499996 15.5,131.099996 13.9,0.4 24.1,3.4 30.3,9.2 6.2,5.6 9.5,16.2 9.7,31.8 1.3,90 1.1,89 3.8,176.2 0.4,14.6 -2.3,24 -8.3,28.2 -6,3.9 -15.9,4.4 -29.6,1.1 0.6,37.2 0.6,69.8 -8.1,96.7 49.8,32.4 82.5,48.5 140.2,49.3 43.8,-2.2 85.1,-8.9 126.5,-14.6 -7.5,-44.2 -8.6,-67.1 -11.5,-111.4 -9.1,0.2 -18.1,0.4 -27.1,0.5 -12.3,0.1 -21.1,-3.4 -26.2,-10.4 -4.9,-7.2 -7.7,-17.3 -8.3,-30 -0.3,-7.2 -0.6,-14.4 -0.9,-21.6 28.1,0.2 57,-0.2 85.9,-0.9 26.4,-0.6 48.8,-4.6 66.6,-11.9 1.4,-0.6 2.9,-1.2 4.3,-1.9 18.9,-7.7 33.2,-17.3 44.1,-29.8 11.9,-13.8 20,-30.4 24.6,-50.1 4.8,-19.6 7.3,-42.6 7.3,-68.4 -0.1,-25.8 -2.6,-49.3 -8.1,-70.9"
     id="path39"
     inkscape:connector-curvature="0"
     style="fill:#ffffff" /></svg>